<?xml version="1.0" encoding="utf-8"?>
<!-- Generator: Adobe Illustrator 16.0.0, SVG Export Plug-In . SVG Version: 6.00 Build 0)  -->
<!DOCTYPE svg PUBLIC "-//W3C//DTD SVG 1.1 Basic//EN" "http://www.w3.org/Graphics/SVG/1.1/DTD/svg11-basic.dtd">
<svg version="1.1" baseProfile="basic" id="Logo" xmlns="http://www.w3.org/2000/svg" xmlns:xlink="http://www.w3.org/1999/xlink"
	 x="0px" y="0px" width="575.806px" height="571px" viewBox="0 0 575.806 571" xml:space="preserve">
<g id="Hexes">
	<g id="Top_2_">
		<polygon id="Middle_-_Top_2_" fill="#E6E7E8" stroke="#5D6D65" stroke-width="5" points="83.797,283.5 2.885,143 83.797,2.5 
			245.623,2.5 326.536,143 245.623,283.5 		"/>
		<g id="Color_-_Top_2_">
			<polygon opacity="0.75" fill="#F16268" points="101.463,252 38.201,143 101.463,34 227.958,34 291.22,143 227.958,252 			"/>
			<path fill="#5D6D65" d="M223.755,41l59.044,102l-59.044,102H105.666L46.622,143l59.044-102H224.08 M232.161,26h-8.406H105.666
				H97.26l-4.21,7.454L34.005,135.57l-4.226,7.346l4.226,7.323l59.044,102.256L97.26,260h8.406h118.089h8.406l4.21-7.493
				l59.044-102.137l4.226-7.355l-4.226-7.328L236.372,33.468L232.161,26L232.161,26z"/>
		</g>
	</g>
	<g id="Bottom_2_">
		<polygon id="Middle_-_Bottom_2_" fill="#E6E7E8" stroke="#5D6D65" stroke-width="5" points="83.799,568.5 2.887,428 83.799,287.5 
			245.625,287.5 326.539,428 245.625,568.5 		"/>
		<g id="Color_-_Bottom_2_">
			<polygon opacity="0.75" fill="#FAEF5F" points="101.465,533 38.203,423.501 101.465,314 227.961,314 291.223,423.501 
				227.961,533 			"/>
			<path fill="#5D6D65" d="M223.758,321l59.044,102.001L223.758,525h-118.09L46.624,423.001L105.668,321H224.08 M232.164,307h-8.406
				h-118.09h-8.406l-4.21,7.181l-59.044,101.98l-4.226,7.278l4.226,7.289L93.051,532.74l4.21,7.26h8.406h118.09h8.406l4.21-7.267
				l59.044-102.021l4.226-7.299l-4.226-7.3l-59.044-101.933L232.164,307L232.164,307z"/>
		</g>
	</g>
	<g id="Right_2_">
		<polygon id="Middle_-_Right_2_" fill="#E6E7E8" stroke="#5D6D65" stroke-width="5" points="330.181,425.5 249.268,285.5 
			330.181,145.5 492.005,145.5 572.918,285.5 492.005,425.5 		"/>
		<g id="Color_-_Right_2_">
			<polygon opacity="0.75" fill="#F89958" points="347.846,394 284.583,284.5 347.846,175 474.341,175 537.603,284.5 474.341,394 
							"/>
			<path fill="#5D6D65" d="M470.138,182l59.044,102l-59.044,102H352.049l-59.044-102l59.044-102H470.08 M478.544,168h-8.406H352.049
				h-8.406l-4.21,7.205l-59.044,101.992l-4.226,7.283l4.226,7.292l59.044,101.99l4.21,7.237h8.406h118.089h8.406l4.21-7.242
				l59.044-102.011l4.226-7.292l-4.226-7.297l-59.044-101.954L478.544,168L478.544,168z"/>
		</g>
	</g>
	<g id="Middle_Fill">
		<g id="_x3C_Group_x3E_BOTTOM">
			<polygon id="_x3C_Path_x3E__BOTTOM_1_" fill="#5D6D66" points="285.83,428 263.396,389 285.83,350 330.697,350 353.131,389 
				330.697,428 			"/>
			<polygon id="_x3C_Path_x3E__BOTTOM" fill="#5C6D65" stroke="#5D6D65" stroke-width="0.4509" points="207.694,272.275 
				254.81,245.08 329.648,374.672 282.532,401.868 			"/>
		</g>
		<g id="_x3C_Group_x3E__LEFT">
			<polygon id="_x3C_Path_x3E__LEFT" fill="#5D6D66" points="97.708,312 81.884,285 97.708,258 129.354,258 145.178,285 
				129.354,312 			"/>
			<rect id="_x3C_Path_x3E__LEFT_1_" x="115.58" y="258.5" fill="#5C6D65" stroke="#5D6D65" width="150" height="54"/>
		</g>
		<g id="_x3C_Group_x3E__RIGHT">
			<polygon id="_x3C_Path_x3E__RIGHT" fill="#5D6D66" points="297.438,197 281.614,170 297.438,143 329.084,143 344.908,170 
				329.084,197 			"/>
			<polygon id="_x3C_Path_x3E__RIGHT_1_" fill="#5C6D65" stroke="#5D6D65" stroke-width="0.4509" points="254.324,325.59 
				207.208,298.395 282.046,168.802 329.162,195.998 			"/>
		</g>
	</g>
</g>
<g>
</g>
<g>
</g>
<g>
</g>
<g>
</g>
<g>
</g>
<g>
</g>
</svg>
