<?xml version="1.0" encoding="UTF-8"?>
<!DOCTYPE svg  PUBLIC '-//W3C//DTD SVG 1.1 Basic//EN'  'http://www.w3.org/Graphics/SVG/1.1/DTD/svg11-basic.dtd'>
<svg width="575.81px" height="571px" baseProfile="basic" version="1.1" viewBox="0 0 575.806 571" xml:space="preserve" xmlns="http://www.w3.org/2000/svg">
		<polygon points="83.797 283.5 2.885 143 83.797 2.5 245.62 2.5 326.54 143 245.62 283.5" fill="#E6E7E8" stroke="#5D6D65" stroke-width="5"/>
			<polygon points="101.46 252 38.201 143 101.46 34 227.96 34 291.22 143 227.96 252" fill="#F16268" opacity=".75"/>
			<path d="m223.76 41l59.044 102-59.044 102h-118.09l-59.044-102 59.044-102h118.41m8.081-15h-134.9l-4.21 7.454-59.045 102.12-4.226 7.346 4.226 7.323 59.044 102.26 4.211 7.505h134.9l4.21-7.493 59.044-102.14 4.226-7.355-4.226-7.328-59.043-102.22-4.211-7.468z" fill="#5D6D65"/>
		<polygon points="83.799 568.5 2.887 428 83.799 287.5 245.62 287.5 326.54 428 245.62 568.5" fill="#E6E7E8" stroke="#5D6D65" stroke-width="5"/>
			<polygon points="101.46 533 38.203 423.5 101.46 314 227.96 314 291.22 423.5 227.96 533" fill="#FAEF5F" opacity=".75"/>
			<path d="m223.76 321l59.044 102-59.044 102h-118.09l-59.044-102 59.044-102h118.41m8.084-14h-134.9l-4.21 7.181-59.044 101.98-4.226 7.278 4.226 7.289 59.043 102.01 4.21 7.26h134.9l4.21-7.267 59.044-102.02 4.226-7.299-4.226-7.3-59.044-101.93-4.209-7.18z" fill="#5D6D65"/>
		<polygon points="330.18 425.5 249.27 285.5 330.18 145.5 492 145.5 572.92 285.5 492 425.5" fill="#E6E7E8" stroke="#5D6D65" stroke-width="5"/>
			<polygon points="347.85 394 284.58 284.5 347.85 175 474.34 175 537.6 284.5 474.34 394" fill="#F89958" opacity=".75"/>
			<path d="m470.14 182l59.044 102-59.044 102h-118.09l-59.044-102 59.044-102h118.03m8.464-14h-134.9l-4.21 7.205-59.044 101.99-4.226 7.283 4.226 7.292 59.044 101.99 4.21 7.237h134.9l4.21-7.242 59.044-102.01 4.226-7.292-4.226-7.297-59.044-101.95-4.21-7.203z" fill="#5D6D65"/>
			<polygon points="285.83 428 263.4 389 285.83 350 330.7 350 353.13 389 330.7 428" fill="#5D6D66"/>
			<polygon points="207.69 272.28 254.81 245.08 329.65 374.67 282.53 401.87" fill="#5C6D65"/>
			<polygon points="97.708 312 81.884 285 97.708 258 129.35 258 145.18 285 129.35 312" fill="#5D6D66"/>
			<rect x="115.58" y="258.5" width="150" height="54" fill="#5C6D65"/>
			<polygon points="297.44 197 281.61 170 297.44 143 329.08 143 344.91 170 329.08 197" fill="#5D6D66"/>
			<polygon points="254.32 325.59 207.21 298.4 282.05 168.8 329.16 196" fill="#5C6D65"/>
</svg>
