<?xml version="1.0" encoding="utf-8"?>
<!-- Generator: Adobe Illustrator 16.0.0, SVG Export Plug-In . SVG Version: 6.00 Build 0)  -->
<!DOCTYPE svg PUBLIC "-//W3C//DTD SVG 1.1 Basic//EN" "http://www.w3.org/Graphics/SVG/1.1/DTD/svg11-basic.dtd">
<svg version="1.1" baseProfile="basic" 
	xmlns="http://www.w3.org/2000/svg" 
	xmlns:sodipodi="http://sodipodi.sourceforge.net/DTD/sodipodi-0.dtd"
	xmlns:inkscape="http://www.inkscape.org/namespaces/inkscape"
	xmlns:svg="http://www.w3.org/2000/svg"
	xmlns:xlink="http://www.w3.org/1999/xlink"
	 x="0px" y="0px" width="3024px" height="3024px" viewBox="0 0 3024 3024" xml:space="preserve">
<g id="Logo__x2B__Text" display="none">
	<g id="Logo" display="inline">
		<g>
			<g id="Text_1_">
				<g>
					<path fill="#5D6D65" d="M1470.853,1948.045c0,17.281-3.12,32.566-9.36,45.84c-6.24,13.283-14.805,24.324-25.68,33.121
						c-10.882,8.805-23.602,15.525-38.16,20.16c-14.565,4.635-30.165,6.959-46.8,6.959c-14.4,0-27.922-1.199-40.56-3.6
						c-12.645-2.4-24.165-5.279-34.56-8.641c-10.403-3.359-19.44-6.877-27.12-10.559c-7.68-3.676-13.92-6.795-18.72-9.361v-88.799
						l43.2-13.92l21.6,60.48c4.8,4.162,11.677,8.721,20.64,13.68c8.955,4.965,19.358,7.439,31.2,7.439
						c13.44,0,23.678-2.641,30.72-7.92c7.035-5.279,10.56-12.24,10.56-20.881c0-5.438-0.96-10.236-2.88-14.398
						c-1.92-4.156-4.8-7.996-8.64-11.521c-3.84-3.518-8.722-6.877-14.64-10.08c-5.925-3.193-13.042-6.555-21.36-10.08
						c-19.522-8.639-35.925-17.197-49.2-25.68c-13.283-8.475-24-17.279-32.16-26.4c-8.16-9.119-14.002-18.795-17.52-29.039
						c-3.525-10.238-5.28-21.436-5.28-33.6c0-15.998,3.998-29.836,12-41.52c7.995-11.678,17.835-21.361,29.52-29.041
						c11.677-7.68,24.157-13.357,37.44-17.039c13.275-3.676,25.2-5.521,35.76-5.521c24,0,44.955,2.881,62.88,8.641
						c17.917,5.76,31.357,11.363,40.32,16.801v82.559l-38.88,12.961l-17.76-57.121c-2.565-1.596-6.885-3.756-12.96-6.479
						c-6.083-2.715-15.84-4.08-29.28-4.08c-9.6,0-17.363,2.084-23.28,6.24c-5.925,4.162-8.88,9.922-8.88,17.279
						c0,4.162,0.555,7.92,1.68,11.279c1.117,3.361,3.36,6.646,6.72,9.84c3.36,3.203,7.92,6.562,13.68,10.08
						c5.76,3.525,13.44,7.365,23.04,11.521c16.635,7.68,31.357,15.201,44.16,22.559c12.795,7.365,23.52,15.285,32.16,23.76
						c8.64,8.482,15.195,17.926,19.68,28.32C1468.61,1922.688,1470.853,1934.605,1470.853,1948.045z"/>
					<path fill="#5D6D65" d="M1762.209,1933.646c0,23.039-3.6,42.238-10.799,57.6c-7.201,15.359-16.561,27.764-28.08,37.199
						c-11.521,9.443-24.322,16.08-38.4,19.92c-14.086,3.84-28.006,5.76-41.76,5.76c-12.48,0-22.08-0.719-28.801-2.16
						c-6.719-1.439-12.479-4.236-17.279-8.398v57.119l21.6,11.041v39.359H1497.73v-39.359l21.12-11.041v-232.32h-21.12v-42.24
						l99.36-18.24v26.4c7.035-7.035,15.6-12.637,25.68-16.799c10.08-4.156,21.195-6.24,33.359-6.24c13.756,0,27.037,2.4,39.84,7.199
						c12.795,4.801,24.158,12.166,34.08,22.08c9.916,9.922,17.76,22.561,23.521,37.92
						C1759.33,1893.807,1762.209,1912.211,1762.209,1933.646z M1680.609,1940.365c0-21.758-4.32-39.195-12.959-52.32
						c-8.641-13.117-20.16-19.68-34.561-19.68c-6.082,0-12.48,1.441-19.201,4.32c-6.719,2.881-12.321,7.199-16.799,12.961v100.318
						c3.518,8.004,8.234,13.441,14.16,16.32c5.916,2.881,11.115,4.486,15.6,4.801c10.561,0.322,19.275-1.838,26.16-6.48
						c6.877-4.635,12.396-10.477,16.561-17.52c4.154-7.035,7.033-14.4,8.639-22.08
						C1679.807,1953.326,1680.609,1946.447,1680.609,1940.365z"/>
					<path fill="#5D6D65" d="M1920.609,2056.045v-29.76c-8.641,10.561-18.803,17.844-30.48,21.84c-11.686,3.998-24.082,6-37.199,6
						c-8.641,0-17.041-1.041-25.201-3.119s-15.359-5.355-21.6-9.84c-6.24-4.479-11.279-10.238-15.119-17.281
						c-3.84-7.033-5.762-15.359-5.762-24.959c0-14.078,3.676-26.641,11.041-37.68c7.357-11.041,17.197-20.641,29.52-28.801
						c12.314-8.16,26.641-14.715,42.961-19.68c16.32-4.957,33.6-8.4,51.84-10.32v-22.08c0-7.357-2.326-12.637-6.961-15.84
						c-4.643-3.195-10.643-4.799-18-4.799c-6.082,0-12.479,1.041-19.199,3.119c-6.721,2.086-13.201,4.883-19.439,8.4
						c-6.24,3.525-12.084,7.521-17.521,12c-5.443,4.484-9.764,9.285-12.959,14.4l-14.881-3.361l-6.719-57.119
						c3.193-2.559,8.557-5.355,16.08-8.4c7.514-3.037,16.236-5.834,26.16-8.4c9.914-2.557,20.639-4.717,32.158-6.48
						c11.521-1.754,22.875-2.639,34.08-2.639c11.836,0,22.959,0.803,33.361,2.4c10.395,1.604,19.514,5.039,27.359,10.318
						c7.838,5.281,13.994,12.803,18.48,22.561c4.477,9.766,6.719,22.965,6.719,39.6v109.441h21.121v42.24L1920.609,2056.045z
						 M1920.609,1938.926c-7.365,0-14.326,1.283-20.881,3.84c-6.562,2.564-12.24,5.76-17.039,9.6
						c-4.801,3.84-8.641,8.16-11.52,12.961c-2.881,4.799-4.32,9.764-4.32,14.879c0,7.365,2.16,13.201,6.479,17.521
						c4.32,4.318,9.676,6.645,16.08,6.959c6.721,0.645,12.795-0.158,18.24-2.4c5.438-2.234,9.758-5.115,12.961-8.639V1938.926z"/>
					<path fill="#5D6D65" d="M2193.727,1895.727c-2.564-3.195-5.926-5.918-10.08-8.16c-4.162-2.236-8.641-3.84-13.439-4.801
						c-4.801-0.959-9.602-1.199-14.4-0.721c-4.801,0.48-9.121,1.846-12.961,4.08v112.801l21.602,11.039v39.361h-120.961v-39.361
						l21.119-11.039v-131.041h-21.119v-42.238l99.359-17.762v37.441c5.115-7.68,10.635-14.16,16.561-19.441
						c5.918-5.279,11.836-9.434,17.76-12.479c5.918-3.037,11.596-5.041,17.041-6c5.438-0.961,10.236-0.795,14.398,0.479v83.041
						L2193.727,1895.727z"/>
					<path fill="#5D6D65" d="M2369.406,2049.326v-39.361l14.398-11.039l-24.959-53.76l-27.84,24.959v28.801l21.6,11.039v39.361
						h-120.961v-39.361l21.121-11.039v-222.24h-21.121v-42.24l99.361-18.24v200.16l58.08-51.359l-19.68-10.561v-38.879h114.719
						v38.879l-34.559,13.439l-37.441,34.08l56.641,96.961l21.119,11.039v39.361H2369.406z"/>
				</g>
			</g>
			<g id="Logo_1_">
				
					<sodipodi:namedview  units="px" id="base" bordercolor="#666666" inkscape:cy="112.18492" inkscape:zoom="4" borderopacity="1.0" inkscape:cx="98.129941" showgrid="false" pagecolor="#ffffff" inkscape:window-y="0" inkscape:document-units="mm" inkscape:pageshadow="2" inkscape:snap-to-guides="true" inkscape:window-maximized="0" inkscape:pagecheckerboard="true" inkscape:pageopacity="0.0" inkscape:window-height="938" inkscape:window-x="110" inkscape:snap-global="true" inkscape:window-width="1470" inkscape:current-layer="layer1" inkscape:snap-grids="false">
					</sodipodi:namedview>
				<path id="path4621" inkscape:connector-curvature="0" fill="#E0E1E0" d="M1162.257,1016.902h355.756l168.436,302.027
					l-171.342,297.67l-352.85,2.906l52.275-76.959l258.465-1.453l132.135-222.164l-136.492-230.875l-257.012,4.354
					L1162.257,1016.902z"/>
				<path id="path4619" inkscape:connector-curvature="0" fill="#E0E1E0" d="M646.779,1310.219L472.534,1622.41l177.15,297.673
					l342.685-1.453l169.889-299.124l-85.67,5.805l-132.137,222.168l-258.465,1.453l-133.59-227.973l130.685-222.166
					L646.779,1310.219z"/>
				
					<path id="path4537" inkscape:connector-curvature="0" sodipodi:nodetypes="ccccccc" fill="#F89958" fill-opacity="0.7843" stroke="#5C6D66" stroke-width="30" d="
					M1211.628,1092.409l-130.685,222.164l133.589,227.974l258.465-1.453l132.135-222.164l-136.492-230.875L1211.628,1092.409z"/>
				<path id="path114" inkscape:connector-curvature="0" fill="#E0E1E0" stroke="#F0EFEF" stroke-width="2" d="M646.779,1310.219
					l-175.698-299.123l175.698-294.767h338.33l177.148,300.574l-84.217-5.807L941.546,780.218l-257.014,4.356l-130.684,222.164
					l133.588,227.974L646.779,1310.219z"/>
				<path id="path3710" inkscape:connector-curvature="0" fill="#010101" fill-opacity="0" stroke="#5C6D66" stroke-width="10" d="
					M646.779,1310.219l-175.698-299.123l175.698-294.767h338.33l177.148,300.574h355.756l168.436,302.027l-171.342,297.67
					l-352.85,2.906L992.369,1918.63l-342.685,1.453l-177.15-297.673L646.779,1310.219z"/>
				
					<path id="path3712" inkscape:connector-curvature="0" sodipodi:nodetypes="ccccccc" fill="#FAEF5F" fill-opacity="0.7843" stroke="#5C6D66" stroke-width="30" d="
					M683.081,1398.793l-130.685,222.166l133.59,227.971l258.465-1.451l132.137-222.168l-136.494-230.873L683.081,1398.793z"/>
				
					<path id="path4531" inkscape:connector-curvature="0" sodipodi:nodetypes="ccccccc" fill="#F16268" fill-opacity="0.7843" stroke="#5C6D66" stroke-width="30" d="
					M684.533,784.574l-130.684,222.164l133.588,227.974l258.465-1.452l132.138-222.164L941.546,780.218L684.533,784.574z"/>
				<path id="path4539" inkscape:connector-curvature="0" fill="#5C6D66" d="M687.437,1234.712
					c-40.658,75.507-40.658,75.507-40.658,75.507l36.302,88.574l257.013-4.355l136.494,230.873l85.67-5.805l52.275-76.959
					l-133.589-227.974l130.685-222.164l-49.371-75.507l-84.217-5.807L945.902,1233.26L687.437,1234.712z"/>
			</g>
		</g>
	</g>
</g>
<g id="Nu_Logo">
	<g id="Text_2_">
		<g>
			<path fill="#5C6D65" d="M1470.853,1948.045c0,17.281-3.12,32.566-9.36,45.84c-6.24,13.283-14.805,24.324-25.68,33.121
				c-10.882,8.805-23.602,15.525-38.16,20.16c-14.565,4.635-30.165,6.959-46.8,6.959c-14.4,0-27.922-1.199-40.56-3.6
				c-12.645-2.4-24.165-5.279-34.56-8.641c-10.403-3.359-19.44-6.877-27.12-10.559c-7.68-3.676-13.92-6.795-18.72-9.361v-88.799
				l43.2-13.92l21.6,60.48c4.8,4.162,11.677,8.721,20.64,13.68c8.955,4.965,19.358,7.439,31.2,7.439
				c13.44,0,23.678-2.641,30.72-7.92c7.035-5.279,10.56-12.24,10.56-20.881c0-5.438-0.96-10.236-2.88-14.398
				c-1.92-4.156-4.8-7.996-8.64-11.521c-3.84-3.518-8.722-6.877-14.64-10.08c-5.925-3.193-13.042-6.555-21.36-10.08
				c-19.522-8.639-35.925-17.197-49.2-25.68c-13.283-8.475-24-17.279-32.16-26.4c-8.16-9.119-14.002-18.795-17.52-29.039
				c-3.525-10.238-5.28-21.436-5.28-33.6c0-15.998,3.998-29.836,12-41.52c7.995-11.678,17.835-21.361,29.52-29.041
				c11.677-7.68,24.157-13.357,37.44-17.039c13.275-3.676,25.2-5.521,35.76-5.521c24,0,44.955,2.881,62.88,8.641
				c17.917,5.76,31.357,11.363,40.32,16.801v82.559l-38.88,12.961l-17.76-57.121c-2.565-1.596-6.885-3.756-12.96-6.479
				c-6.083-2.715-15.84-4.08-29.28-4.08c-9.6,0-17.363,2.084-23.28,6.24c-5.925,4.162-8.88,9.922-8.88,17.279
				c0,4.162,0.555,7.92,1.68,11.279c1.117,3.361,3.36,6.646,6.72,9.84c3.36,3.203,7.92,6.562,13.68,10.08
				c5.76,3.525,13.44,7.365,23.04,11.521c16.635,7.68,31.357,15.201,44.16,22.559c12.795,7.365,23.52,15.285,32.16,23.76
				c8.64,8.482,15.195,17.926,19.68,28.32C1468.61,1922.688,1470.853,1934.605,1470.853,1948.045z"/>
			<path fill="#5C6D65" d="M1762.209,1933.646c0,23.039-3.6,42.238-10.799,57.6c-7.201,15.359-16.561,27.764-28.08,37.199
				c-11.521,9.443-24.322,16.08-38.4,19.92c-14.086,3.84-28.006,5.76-41.76,5.76c-12.48,0-22.08-0.719-28.801-2.16
				c-6.719-1.439-12.479-4.236-17.279-8.398v57.119l21.6,11.041v39.359H1497.73v-39.359l21.12-11.041v-232.32h-21.12v-42.24
				l99.36-18.24v26.4c7.035-7.035,15.6-12.637,25.68-16.799c10.08-4.156,21.195-6.24,33.359-6.24c13.756,0,27.037,2.4,39.84,7.199
				c12.795,4.801,24.158,12.166,34.08,22.08c9.916,9.922,17.76,22.561,23.521,37.92
				C1759.33,1893.807,1762.209,1912.211,1762.209,1933.646z M1680.609,1940.365c0-21.758-4.32-39.195-12.959-52.32
				c-8.641-13.117-20.16-19.68-34.561-19.68c-6.082,0-12.48,1.441-19.201,4.32c-6.719,2.881-12.321,7.199-16.799,12.961v100.318
				c3.518,8.004,8.234,13.441,14.16,16.32c5.916,2.881,11.115,4.486,15.6,4.801c10.561,0.322,19.275-1.838,26.16-6.48
				c6.877-4.635,12.396-10.477,16.561-17.52c4.154-7.035,7.033-14.4,8.639-22.08
				C1679.807,1953.326,1680.609,1946.447,1680.609,1940.365z"/>
			<path fill="#5C6D65" d="M1920.609,2056.045v-29.76c-8.641,10.561-18.803,17.844-30.48,21.84c-11.686,3.998-24.082,6-37.199,6
				c-8.641,0-17.041-1.041-25.201-3.119s-15.359-5.355-21.6-9.84c-6.24-4.479-11.279-10.238-15.119-17.281
				c-3.84-7.033-5.762-15.359-5.762-24.959c0-14.078,3.676-26.641,11.041-37.68c7.357-11.041,17.197-20.641,29.52-28.801
				c12.314-8.16,26.641-14.715,42.961-19.68c16.32-4.957,33.6-8.4,51.84-10.32v-22.08c0-7.357-2.326-12.637-6.961-15.84
				c-4.643-3.195-10.643-4.799-18-4.799c-6.082,0-12.479,1.041-19.199,3.119c-6.721,2.086-13.201,4.883-19.439,8.4
				c-6.24,3.525-12.084,7.521-17.521,12c-5.443,4.484-9.764,9.285-12.959,14.4l-14.881-3.361l-6.719-57.119
				c3.193-2.559,8.557-5.355,16.08-8.4c7.514-3.037,16.236-5.834,26.16-8.4c9.914-2.557,20.639-4.717,32.158-6.48
				c11.521-1.754,22.875-2.639,34.08-2.639c11.836,0,22.959,0.803,33.361,2.4c10.395,1.604,19.514,5.039,27.359,10.318
				c7.838,5.281,13.994,12.803,18.48,22.561c4.477,9.766,6.719,22.965,6.719,39.6v109.441h21.121v42.24L1920.609,2056.045z
				 M1920.609,1938.926c-7.365,0-14.326,1.283-20.881,3.84c-6.562,2.564-12.24,5.76-17.039,9.6c-4.801,3.84-8.641,8.16-11.52,12.961
				c-2.881,4.799-4.32,9.764-4.32,14.879c0,7.365,2.16,13.201,6.479,17.521c4.32,4.318,9.676,6.645,16.08,6.959
				c6.721,0.645,12.795-0.158,18.24-2.4c5.438-2.234,9.758-5.115,12.961-8.639V1938.926z"/>
			<path fill="#5C6D65" d="M2193.727,1895.727c-2.564-3.195-5.926-5.918-10.08-8.16c-4.162-2.236-8.641-3.84-13.439-4.801
				c-4.801-0.959-9.602-1.199-14.4-0.721c-4.801,0.48-9.121,1.846-12.961,4.08v112.801l21.602,11.039v39.361h-120.961v-39.361
				l21.119-11.039v-131.041h-21.119v-42.238l99.359-17.762v37.441c5.115-7.68,10.635-14.16,16.561-19.441
				c5.918-5.279,11.836-9.434,17.76-12.479c5.918-3.037,11.596-5.041,17.041-6c5.438-0.961,10.236-0.795,14.398,0.479v83.041
				L2193.727,1895.727z"/>
			<path fill="#5C6D65" d="M2369.406,2049.326v-39.361l14.398-11.039l-24.959-53.76l-27.84,24.959v28.801l21.6,11.039v39.361
				h-120.961v-39.361l21.121-11.039v-222.24h-21.121v-42.24l99.361-18.24v200.16l58.08-51.359l-19.68-10.561v-38.879h114.719v38.879
				l-34.559,13.439l-37.441,34.08l56.641,96.961l21.119,11.039v39.361H2369.406z"/>
		</g>
	</g>
	<g id="Hexes">
		<g id="Top">
			<polygon id="Middle_-_Top" fill="#E6E7E8" stroke="#5D6D65" stroke-width="10" points="659.429,1317 492.929,1028.5 659.429,740 
				992.429,740 1158.929,1028.5 992.429,1317 			"/>
			<g id="Color_-_Top">
				<polygon opacity="0.75" fill="#F16268" points="695.778,1254 565.599,1029 695.778,804 956.08,804 1086.258,1029 956.08,1254 
									"/>
				<path fill="#5D6D65" d="M947.429,819l121.5,210l-121.5,210h-243l-121.5-210l121.5-210H947 M964.731,789h-17.302h-243h-17.302
					l-8.665,14.851l-121.5,209.938l-8.692,14.993l8.692,15.008l121.5,210.117l8.665,15.093h17.302h243h17.302l8.665-15.101
					l121.5-210.062l8.692-15.055l-8.692-15.04l-121.5-209.883L964.731,789L964.731,789z"/>
			</g>
		</g>
		<g id="Bottom">
			<polygon id="Middle_-_Bottom" fill="#E6E7E8" stroke="#5D6D65" stroke-width="10" points="659.433,1903 492.932,1614.5 
				659.433,1326 992.434,1326 1158.934,1614.5 992.434,1903 			"/>
			<g id="Color_-_Bottom">
				<polygon opacity="0.75" fill="#FAEF5F" points="695.782,1831 565.603,1606 695.781,1381 956.085,1381 1086.263,1606 
					956.084,1831 				"/>
				<path fill="#5D6D65" d="M947.217,1396l121.608,210l-121.392,210H704.433l-121.5-210l121.5-210H947 M964.736,1366h-17.302
					H704.433H687.13l-8.665,14.977l-121.5,210.001l-8.692,15.023l8.692,15.023l121.5,209.999L687.13,1846h17.302h243.001h17.302
					l8.665-14.977l121.5-209.999l8.692-15.023l-8.692-15.023l-121.5-210.001L964.736,1366L964.736,1366z"/>
			</g>
		</g>
		<g id="Right">
			<polygon id="Middle_-_Right" fill="#E6E7E8" stroke="#5D6D65" stroke-width="10" points="1166.429,1610 999.929,1321.5 
				1166.429,1033 1499.429,1033 1665.929,1321.5 1499.429,1610 			"/>
			<g id="Color_-_Right">
				<polygon opacity="0.75" fill="#F89958" points="1202.778,1545 1072.599,1320 1202.778,1095 1463.08,1095 1593.259,1320 
					1463.08,1545 				"/>
				<path fill="#5D6D65" d="M1454.214,1110l121.607,210l-121.393,210h-243l-121.5-210l121.5-210H1454 M1471.731,1080h-17.302h-243
					h-17.302l-8.665,14.976l-121.5,210L1055.27,1320l8.692,15.024l121.5,210l8.665,14.977h17.302h243h17.302l8.665-14.977l121.5-210
					l8.692-15.024l-8.692-15.024l-121.5-210L1471.731,1080L1471.731,1080z"/>
			</g>
		</g>
		<g id="Middle_Fill">
			<g id="_x3C_Group_x3E_BOTTOM">
				<polygon id="_x3C_Path_x3E__BOTTOM_1_" fill="#5D6D66" points="1075.164,1615 1029,1534.5 1075.164,1454 1167.49,1454 
					1213.655,1534.5 1167.49,1615 				"/>
				
					<rect id="_x3C_Path_x3E__BOTTOM" x="983.88" y="1246.294" transform="matrix(-0.866 0.5 -0.5 -0.866 2640.5413 2093.0637)" fill="#5C6D65" stroke="#5D6D65" stroke-width="0.928" width="111.952" height="308"/>
			</g>
			<g id="_x3C_Group_x3E__LEFT">
				<polygon id="_x3C_Path_x3E__LEFT" fill="#5D6D66" points="688.052,1377 655.491,1320.5 688.052,1264 753.173,1264 
					785.734,1320.5 753.173,1377 				"/>
				<rect id="_x3C_Path_x3E__LEFT_1_" x="724.5" y="1264.5" fill="#5C6D65" stroke="#5D6D65" width="308" height="112"/>
			</g>
			<g id="_x3C_Group_x3E__RIGHT">
				<polygon id="_x3C_Path_x3E__RIGHT" fill="#5D6D66" points="1099.051,1141 1066.49,1084.5 1099.051,1028 1164.172,1028 
					1196.733,1084.5 1164.172,1141 				"/>
				
					<rect id="_x3C_Path_x3E__RIGHT_1_" x="982.88" y="1089.295" transform="matrix(0.866 0.5 -0.5 0.866 760.8356 -352.8595)" fill="#5C6D65" stroke="#5D6D65" stroke-width="0.928" width="111.952" height="307.999"/>
			</g>
		</g>
	</g>
	<g>
	</g>
	<g>
	</g>
	<g>
	</g>
	<g>
	</g>
	<g>
	</g>
	<g>
	</g>
</g>
</svg>
