<?xml version="1.0" encoding="utf-8"?>
<!-- Generator: Adobe Illustrator 16.0.0, SVG Export Plug-In . SVG Version: 6.00 Build 0)  -->
<!DOCTYPE svg PUBLIC "-//W3C//DTD SVG 1.1 Basic//EN" "http://www.w3.org/Graphics/SVG/1.1/DTD/svg11-basic.dtd">
<svg version="1.1" baseProfile="basic" id="Logo__x2B__Text"
	 xmlns="http://www.w3.org/2000/svg" xmlns:xlink="http://www.w3.org/1999/xlink" x="0px" y="0px" width="1280px" height="720px"
	 viewBox="0 0 1280 720" xml:space="preserve">
<g id="Text_2_">
	<g>
		<path fill="#5C6D65" d="M652.102,504.59c0,4.872-0.888,9.182-2.662,12.924c-1.775,3.745-4.212,6.857-7.305,9.338
			c-3.096,2.482-6.714,4.377-10.855,5.684c-4.143,1.307-8.581,1.963-13.312,1.963c-4.096,0-7.943-0.338-11.538-1.016
			c-3.597-0.676-6.874-1.488-9.831-2.436c-2.959-0.947-5.53-1.939-7.714-2.977s-3.96-1.916-5.325-2.64v-25.036l12.289-3.924
			l6.144,17.051c1.366,1.174,3.322,2.459,5.871,3.857c2.547,1.4,5.506,2.098,8.875,2.098c3.823,0,6.735-0.744,8.739-2.232
			c2.001-1.489,3.004-3.451,3.004-5.888c0-1.532-0.273-2.886-0.819-4.06c-0.546-1.172-1.365-2.254-2.458-3.248
			c-1.092-0.992-2.481-1.939-4.164-2.842c-1.686-0.9-3.71-1.848-6.076-2.842c-5.553-2.436-10.219-4.849-13.995-7.24
			c-3.778-2.389-6.827-4.871-9.148-7.443c-2.321-2.57-3.983-5.299-4.984-8.188c-1.002-2.886-1.502-6.043-1.502-9.473
			c0-4.51,1.137-8.411,3.414-11.705c2.274-3.293,5.073-6.023,8.397-8.188c3.322-2.166,6.872-3.767,10.65-4.805
			c3.776-1.036,7.168-1.557,10.172-1.557c6.827,0,12.788,0.812,17.887,2.436c5.097,1.625,8.92,3.204,11.469,4.737v23.276
			l-11.059,3.654l-5.052-16.104c-0.729-0.45-1.958-1.06-3.687-1.827c-1.73-0.766-4.506-1.15-8.329-1.15
			c-2.731,0-4.939,0.588-6.622,1.76c-1.686,1.174-2.526,2.797-2.526,4.871c0,1.174,0.158,2.233,0.478,3.181
			c0.318,0.947,0.956,1.874,1.912,2.774c0.956,0.902,2.253,1.85,3.892,2.842c1.638,0.994,3.823,2.076,6.554,3.248
			c4.732,2.165,8.92,4.286,12.562,6.36c3.64,2.076,6.691,4.31,9.148,6.698c2.457,2.393,4.322,5.055,5.598,7.984
			C651.463,497.441,652.102,500.801,652.102,504.59z"/>

 		<path fill="#5C6D65" d="M734.979,500.53c0,6.496-1.024,11.909-3.072,16.239s-4.71,7.828-7.987,10.488
			c-3.277,2.662-6.919,4.533-10.924,5.616c-4.006,1.083-7.966,1.624-11.879,1.624c-3.549,0-6.28-0.203-8.191-0.609
			c-1.912-0.406-3.551-1.194-4.916-2.368v16.104l6.145,3.112v11.097h-34.408v-11.097l6.008-3.112v-65.5h-6.008v-11.908l28.264-5.143
			v7.443c2.002-1.983,4.438-3.562,7.305-4.736c2.867-1.172,6.029-1.76,9.49-1.76c3.912,0,7.69,0.677,11.332,2.03
			c3.64,1.353,6.872,3.43,9.694,6.226c2.82,2.797,5.052,6.359,6.69,10.69S734.979,494.487,734.979,500.53z M711.768,502.425
			c0-6.134-1.229-11.05-3.687-14.751c-2.458-3.697-5.734-5.549-9.831-5.549c-1.729,0-3.549,0.406-5.461,1.219
			s-3.506,2.029-4.779,3.654v28.283c1.001,2.256,2.343,3.789,4.028,4.602c1.683,0.812,3.161,1.264,4.438,1.354
			c3.004,0.09,5.483-0.519,7.441-1.828c1.956-1.307,3.526-2.953,4.71-4.939c1.182-1.982,2.002-4.06,2.458-6.225
			C711.539,506.078,711.768,504.14,711.768,502.425z"/>

		<path fill="#5C6D65" d="M780.037,535.039v-8.391c-2.457,2.978-5.349,5.031-8.67,6.158c-3.324,1.127-6.851,1.691-10.582,1.691
			c-2.457,0-4.848-0.294-7.168-0.88c-2.321-0.586-4.369-1.51-6.145-2.774c-1.775-1.262-3.209-2.887-4.301-4.871
			s-1.639-4.331-1.639-7.037c0-3.969,1.045-7.512,3.141-10.624c2.093-3.112,4.892-5.819,8.396-8.12
			c3.504-2.3,7.578-4.148,12.221-5.548c4.643-1.397,9.558-2.368,14.746-2.909v-6.226c0-2.074-0.662-3.563-1.98-4.466
			c-1.32-0.9-3.027-1.354-5.119-1.354c-1.73,0-3.551,0.295-5.462,0.88c-1.911,0.588-3.755,1.376-5.53,2.368
			c-1.774,0.994-3.437,2.121-4.983,3.383c-1.549,1.266-2.777,2.618-3.687,4.061l-4.232-0.947l-1.912-16.104
			c0.909-0.722,2.435-1.51,4.574-2.369c2.139-0.856,4.619-1.645,7.441-2.368c2.82-0.722,5.871-1.33,9.148-1.827
			c3.277-0.494,6.507-0.744,9.693-0.744c3.367,0,6.531,0.227,9.49,0.677c2.957,0.452,5.551,1.421,7.783,2.909
			c2.229,1.489,3.98,3.609,5.256,6.361c1.273,2.752,1.912,6.475,1.912,11.164v30.855h6.008v11.908L780.037,535.039z M780.037,502.02
			c-2.096,0-4.074,0.361-5.939,1.082c-1.867,0.723-3.482,1.624-4.848,2.707c-1.365,1.082-2.457,2.301-3.276,3.653
			c-0.819,1.354-1.229,2.753-1.229,4.195c0,2.077,0.615,3.722,1.844,4.939s2.752,1.874,4.574,1.962
			c1.912,0.182,3.64-0.044,5.188-0.676c1.547-0.631,2.775-1.442,3.687-2.437V502.02z"/>

		<path fill="#5C6D65" d="M857.727,489.84c-0.73-0.901-1.686-1.669-2.867-2.301c-1.185-0.631-2.458-1.083-3.823-1.354
			c-1.366-0.271-2.731-0.338-4.097-0.203s-2.594,0.521-3.686,1.15v31.803l6.144,3.111v11.098H814.99v-11.098l6.008-3.111V481.99
			h-6.008v-11.908l28.264-5.008v10.556c1.454-2.165,3.024-3.992,4.71-5.481c1.683-1.488,3.366-2.659,5.052-3.518
			c1.684-0.856,3.299-1.422,4.848-1.691c1.547-0.271,2.912-0.225,4.096,0.135v23.412L857.727,489.84z"/>

		<path fill="#5C6D65" d="M907.699,533.145v-11.098l4.096-3.111l-7.1-15.157l-7.919,7.037v8.12l6.144,3.111v11.098h-34.407v-11.098
			l6.008-3.111v-62.658h-6.008v-11.908l28.264-5.143v56.432l16.521-14.48l-5.598-2.977V467.24h32.633v10.961l-9.831,3.789
			l-10.649,9.608l16.111,27.337l6.008,3.111v11.098H907.699z"/>
	</g>
</g>

<g id="Hexes">
	<g id="Top_2_">
		<polygon id="Middle_-_Top_2_" fill="#E6E7E8" stroke="#5D6D65" stroke-width="3" points="421.288,326.5 373.926,245.5 
			421.288,164.5 516.011,164.5 563.373,245.5 516.011,326.5 		"/>
		<g id="Color_-_Top_2_">
			<polygon opacity="0.75" fill="#F16268" points="431.649,309 394.608,245.5 431.649,182 505.649,182 542.69,245.5 505.649,309 			
				"/>
			<path fill="#5D6D65" d="M503.21,186l34.562,59.5L503.21,305h-69.123l-34.561-59.5l34.561-59.5H503 M508.088,178h-4.878h-69.123
				h-4.878l-2.459,4.065l-34.562,59.134l-2.5,4.246l2.5,4.265l34.562,59.142L429.21,313h4.878h69.123h4.878l2.459-4.157
				l34.562-59.179l2.5-4.269l-2.5-4.276l-34.562-59.057L508.088,178L508.088,178z"/>
		</g>
	</g>
	<g id="Bottom_2_">
		<polygon id="Middle_-_Bottom_2_" fill="#E6E7E8" stroke="#5D6D65" stroke-width="3" points="421.289,491.5 373.927,410.5 
			421.289,329.5 516.012,329.5 563.374,410.5 516.012,491.5 		"/>
		<g id="Color_-_Bottom_2_">
			<polygon opacity="0.75" fill="#FAEF5F" points="431.65,472 394.609,408.5 431.65,345 505.651,345 542.692,408.5 505.651,472 			
				"/>
			<path fill="#5D6D65" d="M503.212,349l34.562,59l-34.562,59h-69.123l-34.561-59l34.561-59H503 M508.09,340h-4.878h-69.123h-4.878
				l-2.459,4.439l-34.562,59.319l-2.5,4.34l2.5,4.312l34.562,59.291l2.459,4.299h4.878h69.123h4.878l2.459-4.284l34.562-59.241
				l2.5-4.302l-2.5-4.292l-34.562-59.438L508.09,340L508.09,340z"/>
		</g>
	</g>
	<g id="Right_2_">
		<polygon id="Middle_-_Right_2_" fill="#E6E7E8" stroke="#5D6D65" stroke-width="3" points="565.506,409.5 518.145,328 
			565.506,246.5 660.229,246.5 707.592,328 660.229,409.5 		"/>
		<g id="Color_-_Right_2_">
			<polygon opacity="0.75" fill="#F89958" points="575.868,391 538.827,327.5 575.868,264 649.869,264 686.909,327.5 649.869,391 
							"/>
			<path fill="#5D6D65" d="M647.43,268l34.561,59.5L647.43,387h-69.123l-34.562-59.5l34.562-59.5H647 M652.308,260h-4.878h-69.123
				h-4.878l-2.459,4.122l-34.562,59.162l-2.5,4.261l2.5,4.272l34.562,59.089l2.459,4.095h4.878h69.123h4.878l2.459-4.101
				l34.561-59.151l2.5-4.254l-2.5-4.269l-34.561-59.11L652.308,260L652.308,260z"/>
		</g>
	</g>
	<g id="Middle_Fill">
		<g id="_x3C_Group_x3E_BOTTOM">
			<polygon id="_x3C_Path_x3E__BOTTOM_1_" fill="#5D6D66" points="539.545,411 526.414,388 539.545,365 565.808,365 578.94,388 
				565.808,411 			"/>
			<polygon id="_x3C_Path_x3E__BOTTOM" fill="#5C6D65" stroke="#5D6D65" stroke-width="0.2628" points="493.81,320.449 
				521.388,304.668 565.194,379.869 537.615,395.65 			"/>
		</g>
		<g id="_x3C_Group_x3E__LEFT">
			<polygon id="_x3C_Path_x3E__LEFT" fill="#5D6D66" points="429.43,344 420.167,328 429.43,312 447.954,312 457.216,328 
				447.954,344 			"/>
			<rect id="_x3C_Path_x3E__LEFT_1_" x="439.5" y="311.5" fill="#5C6D65" stroke="#5D6D65" width="88" height="32"/>
		</g>
		<g id="_x3C_Group_x3E__RIGHT">
			<polygon id="_x3C_Path_x3E__RIGHT" fill="#5D6D66" points="546.34,277 537.078,261 546.34,245 564.864,245 574.126,261 
				564.864,277 			"/>
			<polygon id="_x3C_Path_x3E__RIGHT_1_" fill="#5C6D65" stroke="#5D6D65" stroke-width="0.2628" points="521.104,351.388 
				493.525,335.606 537.331,260.404 564.91,276.186 			"/>
		</g>
	</g>
</g>
<g>
</g>
<g>
</g>
<g>
</g>
<g>
</g>
<g>
</g>
<g>
</g>
</svg>
