<?xml version="1.0" encoding="UTF-8"?>
<!DOCTYPE svg  PUBLIC '-//W3C//DTD SVG 1.1 Basic//EN'  'http://www.w3.org/Graphics/SVG/1.1/DTD/svg11-basic.dtd'>
<svg baseProfile="basic" version="1.1" viewBox="0 0 1280 720" xml:space="preserve" xmlns="http://www.w3.org/2000/svg">
	<g fill="#5C6D65">
		<path d="m652.1 504.59c0 4.872-0.888 9.182-2.662 12.924-1.775 3.745-4.212 6.857-7.305 9.338-3.096 2.482-6.714 4.377-10.855 5.684-4.143 1.307-8.581 1.963-13.312 1.963-4.096 0-7.943-0.338-11.538-1.016-3.597-0.676-6.874-1.488-9.831-2.436-2.959-0.947-5.53-1.939-7.714-2.977s-3.96-1.916-5.325-2.64v-25.036l12.289-3.924 6.144 17.051c1.366 1.174 3.322 2.459 5.871 3.857 2.547 1.4 5.506 2.098 8.875 2.098 3.823 0 6.735-0.744 8.739-2.232 2.001-1.489 3.004-3.451 3.004-5.888 0-1.532-0.273-2.886-0.819-4.06-0.546-1.172-1.365-2.254-2.458-3.248-1.092-0.992-2.481-1.939-4.164-2.842-1.686-0.9-3.71-1.848-6.076-2.842-5.553-2.436-10.219-4.849-13.995-7.24-3.778-2.389-6.827-4.871-9.148-7.443-2.321-2.57-3.983-5.299-4.984-8.188-1.002-2.886-1.502-6.043-1.502-9.473 0-4.51 1.137-8.411 3.414-11.705 2.274-3.293 5.073-6.023 8.397-8.188 3.322-2.166 6.872-3.767 10.65-4.805 3.776-1.036 7.168-1.557 10.172-1.557 6.827 0 12.788 0.812 17.887 2.436 5.097 1.625 8.92 3.204 11.469 4.737v23.276l-11.059 3.654-5.052-16.104c-0.729-0.45-1.958-1.06-3.687-1.827-1.73-0.766-4.506-1.15-8.329-1.15-2.731 0-4.939 0.588-6.622 1.76-1.686 1.174-2.526 2.797-2.526 4.871 0 1.174 0.158 2.233 0.478 3.181 0.318 0.947 0.956 1.874 1.912 2.774 0.956 0.902 2.253 1.85 3.892 2.842 1.638 0.994 3.823 2.076 6.554 3.248 4.732 2.165 8.92 4.286 12.562 6.36 3.64 2.076 6.691 4.31 9.148 6.698 2.457 2.393 4.322 5.055 5.598 7.984 1.269 2.936 1.908 6.296 1.908 10.085z"/>
 		<path d="m734.98 500.53c0 6.496-1.024 11.909-3.072 16.239s-4.71 7.828-7.987 10.488c-3.277 2.662-6.919 4.533-10.924 5.616-4.006 1.083-7.966 1.624-11.879 1.624-3.549 0-6.28-0.203-8.191-0.609-1.912-0.406-3.551-1.194-4.916-2.368v16.104l6.145 3.112v11.097h-34.408v-11.097l6.008-3.112v-65.5h-6.008v-11.908l28.264-5.143v7.443c2.002-1.983 4.438-3.562 7.305-4.736 2.867-1.172 6.029-1.76 9.49-1.76 3.912 0 7.69 0.677 11.332 2.03 3.64 1.353 6.872 3.43 9.694 6.226 2.82 2.797 5.052 6.359 6.69 10.69s2.457 9.521 2.457 15.564zm-23.211 1.895c0-6.134-1.229-11.05-3.687-14.751-2.458-3.697-5.734-5.549-9.831-5.549-1.729 0-3.549 0.406-5.461 1.219s-3.506 2.029-4.779 3.654v28.283c1.001 2.256 2.343 3.789 4.028 4.602 1.683 0.812 3.161 1.264 4.438 1.354 3.004 0.09 5.483-0.519 7.441-1.828 1.956-1.307 3.526-2.953 4.71-4.939 1.182-1.982 2.002-4.06 2.458-6.225 0.454-2.167 0.683-4.105 0.683-5.82z"/>
		<path d="m780.04 535.04v-8.391c-2.457 2.978-5.349 5.031-8.67 6.158-3.324 1.127-6.851 1.691-10.582 1.691-2.457 0-4.848-0.294-7.168-0.88-2.321-0.586-4.369-1.51-6.145-2.774-1.775-1.262-3.209-2.887-4.301-4.871s-1.639-4.331-1.639-7.037c0-3.969 1.045-7.512 3.141-10.624 2.093-3.112 4.892-5.819 8.396-8.12 3.504-2.3 7.578-4.148 12.221-5.548 4.643-1.397 9.558-2.368 14.746-2.909v-6.226c0-2.074-0.662-3.563-1.98-4.466-1.32-0.9-3.027-1.354-5.119-1.354-1.73 0-3.551 0.295-5.462 0.88-1.911 0.588-3.755 1.376-5.53 2.368-1.774 0.994-3.437 2.121-4.983 3.383-1.549 1.266-2.777 2.618-3.687 4.061l-4.232-0.947-1.912-16.104c0.909-0.722 2.435-1.51 4.574-2.369 2.139-0.856 4.619-1.645 7.441-2.368 2.82-0.722 5.871-1.33 9.148-1.827 3.277-0.494 6.507-0.744 9.693-0.744 3.367 0 6.531 0.227 9.49 0.677 2.957 0.452 5.551 1.421 7.783 2.909 2.229 1.489 3.98 3.609 5.256 6.361 1.273 2.752 1.912 6.475 1.912 11.164v30.855h6.008v11.908l-28.399 5.144zm0-33.019c-2.096 0-4.074 0.361-5.939 1.082-1.867 0.723-3.482 1.624-4.848 2.707-1.365 1.082-2.457 2.301-3.276 3.653-0.819 1.354-1.229 2.753-1.229 4.195 0 2.077 0.615 3.722 1.844 4.939s2.752 1.874 4.574 1.962c1.912 0.182 3.64-0.044 5.188-0.676 1.547-0.631 2.775-1.442 3.687-2.437v-15.425z"/>
		<path d="m857.73 489.84c-0.73-0.901-1.686-1.669-2.867-2.301-1.185-0.631-2.458-1.083-3.823-1.354-1.366-0.271-2.731-0.338-4.097-0.203s-2.594 0.521-3.686 1.15v31.803l6.144 3.111v11.098h-34.408v-11.098l6.008-3.111v-36.945h-6.008v-11.908l28.264-5.008v10.556c1.454-2.165 3.024-3.992 4.71-5.481 1.683-1.488 3.366-2.659 5.052-3.518 1.684-0.856 3.299-1.422 4.848-1.691 1.547-0.271 2.912-0.225 4.096 0.135v23.412l-4.233 1.353z"/>
		<path d="m907.7 533.14v-11.098l4.096-3.111-7.1-15.157-7.919 7.037v8.12l6.144 3.111v11.098h-34.407v-11.098l6.008-3.111v-62.658h-6.008v-11.908l28.264-5.143v56.432l16.521-14.48-5.598-2.977v-10.962h32.633v10.961l-9.831 3.789-10.649 9.608 16.111 27.337 6.008 3.111v11.098h-34.273z"/>
	</g>
		<polygon points="421.29 326.5 373.93 245.5 421.29 164.5 516.01 164.5 563.37 245.5 516.01 326.5" fill="#E6E7E8" stroke="#5D6D65" stroke-width="3"/>
			<polygon points="431.65 309 394.61 245.5 431.65 182 505.65 182 542.69 245.5 505.65 309" fill="#F16268" opacity=".75"/>
			<path d="m503.21 186l34.562 59.5-34.562 59.5h-69.123l-34.561-59.5 34.561-59.5h68.913m5.088-8h-78.879l-2.459 4.065-34.562 59.134-2.5 4.246 2.5 4.265 34.562 59.142 2.46 4.148h78.879l2.459-4.157 34.562-59.179 2.5-4.269-2.5-4.276-34.562-59.057-2.46-4.062z" fill="#5D6D65"/>
		<polygon points="421.29 491.5 373.93 410.5 421.29 329.5 516.01 329.5 563.37 410.5 516.01 491.5" fill="#E6E7E8" stroke="#5D6D65" stroke-width="3"/>
			<polygon points="431.65 472 394.61 408.5 431.65 345 505.65 345 542.69 408.5 505.65 472" fill="#FAEF5F" opacity=".75"/>
			<path d="m503.21 349l34.562 59-34.562 59h-69.123l-34.561-59 34.561-59h68.911m5.09-9h-78.879l-2.459 4.439-34.562 59.319-2.5 4.34 2.5 4.312 34.562 59.291 2.459 4.299h78.879l2.459-4.284 34.562-59.241 2.5-4.302-2.5-4.292-34.562-59.438-2.459-4.443z" fill="#5D6D65"/>
		<polygon points="565.51 409.5 518.14 328 565.51 246.5 660.23 246.5 707.59 328 660.23 409.5" fill="#E6E7E8" stroke="#5D6D65" stroke-width="3"/>
			<polygon points="575.87 391 538.83 327.5 575.87 264 649.87 264 686.91 327.5 649.87 391" fill="#F89958" opacity=".75"/>
			<path d="m647.43 268l34.561 59.5-34.561 59.5h-69.123l-34.562-59.5 34.562-59.5h68.693m5.308-8h-78.879l-2.459 4.122-34.562 59.162-2.5 4.261 2.5 4.272 34.562 59.089 2.459 4.095h78.879l2.459-4.101 34.561-59.151 2.5-4.254-2.5-4.269-34.561-59.11-2.459-4.116z" fill="#5D6D65"/>
			<polygon points="539.54 411 526.41 388 539.54 365 565.81 365 578.94 388 565.81 411" fill="#5D6D66"/>
			<polygon points="493.81 320.45 521.39 304.67 565.19 379.87 537.62 395.65" fill="#5C6D65" stroke="#5D6D65" stroke-width=".2628"/>
			<polygon points="429.43 344 420.17 328 429.43 312 447.95 312 457.22 328 447.95 344" fill="#5D6D66"/>
			<rect x="439.5" y="311.5" width="88" height="32" fill="#5C6D65" stroke="#5D6D65"/>
			<polygon points="546.34 277 537.08 261 546.34 245 564.86 245 574.13 261 564.86 277" fill="#5D6D66"/>
			<polygon points="521.1 351.39 493.52 335.61 537.33 260.4 564.91 276.19" fill="#5C6D65" stroke="#5D6D65" stroke-width=".2628"/>
</svg>
